<?xml version="1.0" encoding="UTF-8"?><svg id="Layer_1" xmlns="http://www.w3.org/2000/svg" viewBox="0 0 103.36132 128.25337"><path d="M34.12412.66037c1.16554-.18168,2.33109-.36335,3.49663-.54502,4.33288-.43612,8.44919.38339,12.40426,2.13785,2.9079,1.6956,5.35177,3.93113,7.53442,6.47063,3.8922,5.80797,4.04178,12.34613,3.45447,18.9335-.20073,2.25147.51183,3.04859,2.5622,3.09422,3.61336,3.31195,8.09682,2.96885,12.49761,2.97305,3.41287.68385,6.02704,2.9427,8.9731,4.54709,1.35484.07838,2.31864.74481,2.92734,1.94524,1.20791.86276,2.36755,1.80518,3.63373,2.57176,2.66252,1.61195,4.66761,3.83808,6.33251,6.41628,3.33789,8.36314-1.32676,14.66031-6.18991,16.85681-3.43023,1.54929-6.90081,1.36474-10.73356-.03119,1.31721,4.19049,2.44736,8.04838,3.76188,11.84243.54817,1.58216.28637,2.17564-1.41289,2.00244-.57643-.05876-1.16386-.00973-1.74626-.00987q-3.70962-.00087-3.40767,3.74974c.61723.86946,1.51571.39375,2.26121.39822,6.90321.04152,13.8078.08711,20.70957-.02147,1.79625-.02825,2.17535.54274,2.16179,2.23669-.07782,9.72735-.09508,19.45634.01618,29.18307.02213,1.93464-.56711,2.33766-2.37216,2.29177-3.81417-.09697-7.63267.01835-11.41296-.64566-3.47085-1.6772-6.72261-3.6371-8.79975-7.04321-.61652-1.01098-1.56799-.76877-2.45033-.77319-5.57546-.0279-11.151-.03715-16.72652-.05256-1.33228-.33076-2.66454-.66151-3.99682-.99226-2.51224-.88109-4.12059-2.92437-5.97861-4.64663-.15047-.15938-.30093-.31875-.4514-.47813-1.64752-2.53457-2.45277-5.34783-2.56718-8.16517-3.30643-.48964-4.41451,1.46385-5.41213,3.99931-2.14686,5.45629-4.57204,10.80297-6.86087,16.204-.18693.44112-.20273.95471-.29805,1.43462-1.38841,3.22259-2.83826,6.42063-4.14051,9.67766-.69991,1.75055-1.28379,2.65578-3.46023,1.54205-3.13897-1.60627-6.51981-2.74021-9.79744-4.0757-4.12727-1.7682-8.16712-3.75269-12.4875-5.04304-1.70215-.79552-3.38826-1.62835-5.11368-2.36972-.78057-.33539-1.34504-.60868-.8463-1.59861,1.74356-3.46078,2.80296-7.23504,5.10879-10.44922,2.34914-3.27454,5.41501-5.34532,9.3216-6.05988,1.34116-.24531,1.92297-.8253,2.40699-2.02087,2.32175-5.73501,4.94226-11.35662,7.07258-17.15941,1.98792-5.41489,5.7307-8.7604,10.91364-10.8063.92029-.36327,1.82044-.77936,2.71674-1.19911.1042-.0488.1239-.27787.48422-1.16822-4.65842,1.70423-8.94886,1.9542-13.0294-.31656-2.11198-1.52724-4.19197-3.10362-6.5467-4.25786-3.9277-2.90442-8.4074-5.18163-10.96471-9.64315-.80573-2.71129-1.48599-5.42469-.72246-8.28238,1.6567-6.20061,5.96488-9.33311,13.56844-9.78369-3.02316-14.07757-2.16018-26.56998,13.60611-32.87031Z" stroke-width="0"/><path d="M23.60021,102.9051c2.67484-7.84244,6.07693-15.3917,9.31341-23.00667.64301-1.51291,1.90497-2.44652,3.42252-3.09788,4.11557-1.76648,8.20663-3.59005,12.30741-5.39098.92399-.6816,2.00055-.7353,3.08523-.73917,4.88815-.01746,9.77645-.03291,14.66439.01071,1.14799.01024,2.34907-.03878,3.23512.93426-.00014,6.29858.0408,12.59763-.03063,18.89541-.01688,1.48789.37586,2.02446,1.93679,1.99371,3.55886-.07011,7.1215.05127,10.6826.09485,1.22683,2.68763,1.2026,5.38698.07596,8.09668-6.40726.0342-12.81537.14376-19.22144.0719-3.37802-.03789-5.89326-2.70225-5.983-6.09944-.07468-2.8275-.0745-5.66004.00338-8.48729.04233-1.53687-.1058-2.2278-2.01372-1.73748-4.82477,1.23997-9.71193,2.24111-14.58499,3.28721-1.43281.30759-2.23612,1.07298-2.7948,2.4472-2.15405,5.29832-4.42871,10.54764-6.65841,15.81524-2.91741.02376-5.45588-.86476-7.43983-3.08824Z" fill="#0078d6" stroke-width="0"/><path d="M69.62829,71.61536c-6.99491-.06859-13.98982-.13718-20.98474-.20578-2.20605-6.15857-4.41209-12.31714-6.61813-18.4757-2.64167-2.60578-3.21397-6.07659-1.50309-9.11581,2.03092-4.77766,5.71987-6.56918,10.7592-6.0828,2.38226.22993,4.78521-.17258,7.18384.30798,2.50245.50136,4.45284,1.64089,5.68986,3.90436-.93217,1.50094-2.49183,1.12086-3.80017,1.08781-2.42227-.06118-2.34984,1.4888-2.35346,3.12719-.00367,1.65469-.03182,3.23417,2.37557,3.1001,1.39768-.07784,2.81241-.07181,4.21221.04213.94935.07728,2.03947-.06469,2.56295,1.07491,1.95041,6.05483,3.89299,12.11219,5.85465,18.16337.93847,2.89494.95476,2.8862-2.14647,2.95779-.4114.00949-.82151.07492-1.23222.11445Z" fill="#ef3a17" stroke-width="0"/><path d="M27.6619,21.21525c.11213-6.95445,4.79967-11.93216,12.04964-12.79554,5.17261-.616,11.44622,3.67767,12.54255,9.30973.94471,4.85321,1.20547,9.90406-1.62207,14.46397-2.05369-1.14431-3.11239-2.74575-2.9321-5.23984.18505-2.55996-.38632-2.9104-2.72079-1.91935-1.07895.45804-1.89978.0324-2.42282-.65938-2.20346-2.91434-5.2429-3.01923-8.49021-2.9372-2.12482.05367-4.29342.44808-6.4042-.22238Z" fill="#613d30" stroke-width="0"/><path d="M27.6619,21.21525c3.92707-.86965,7.90441-.41375,11.8466-.28036,1.60559.05433,2.37084,1.92922,3.55411,2.9334.65128.55271.96322,1.42175,1.93081.04118,1.05217-1.50125,3.56068-.7613,3.41918,1.00268-.22834,2.84669.54152,5.1397,2.21939,7.28132-4.12896,5.0186-9.30905,6.71758-14.68757,4.81723-5.27168-1.86259-8.32471-6.6358-8.34528-13.06576-.00291-.90982.04069-1.81979.06276-2.72969Z" fill="#ba9067" stroke-width="0"/><path d="M67.15234,50.37975c-2.73915-.05028-5.47975-.17518-8.21691-.12225-1.58806.0307-1.91892-.67203-1.95953-2.09716-.16934-5.94148-.20843-5.93767,5.69567-6.0714.49568-.01122.98978-.09153,1.48415-.14053.41347.02529.84605.14343,1.23863.06401,9.88398-1.99963,16.47584,4.35847,23.56572,9.34616,1.97207,1.38735,2.18751,3.63825.97846,5.50607-1.22842,1.89774-3.53262,2.51133-5.68504,1.2275-2.70124-1.61119-5.41942-3.26058-7.85449-5.23362-2.79201-2.26224-5.80535-2.99137-9.24665-2.47877Z" fill="#ba9067" stroke-width="0"/><path d="M40.52234,43.81806c-.97895,3.28326.52061,6.15768,1.50404,9.11644-2.43545,1.57996-4.88495,3.13805-7.29982,4.74806-2.03088,1.35401-3.96004,1.35107-5.99989-.04898-3.76183-2.58192-7.60788-5.04106-11.37783-7.61143-2.43351-1.65918-3.0098-3.84758-1.70186-5.94394,1.34571-2.15691,3.79457-2.63827,6.31689-1.05974,2.80724,1.75684,5.55866,3.60968,8.26023,5.52524,1.19931.85038,2.08938.81803,3.28194-.05365,2.26626-1.65648,4.66979-3.12527,7.01631-4.67201Z" fill="#ba9067" stroke-width="0"/><path d="M82.29301,100.696c-.02532-2.69888-.05064-5.39777-.07596-8.09667,3.65979-.04451,7.32046-.05601,10.97892-.15145,1.2752-.03325,1.77255.39327,1.75596,1.71174-.05651,4.49312-.05656,8.98782-.0013,13.48098.01781,1.44716-.63699,1.75345-1.8474,1.41793-2.99876-.83128-5.39545-2.53158-6.05543-5.64881-.46969-2.21844-1.50125-2.84057-3.52637-2.54965-.39349.05652-.81814-.10378-1.22843-.16407Z" fill="#d28b00" stroke-width="0"/><path d="M23.60021,102.9051c2.47997,1.02942,4.95994,2.05884,7.43987,3.08825-1.40221,3.45141-2.83706,6.89013-4.18594,10.36224-.38719.99665-.81138,1.26366-1.83725.82433-4.19403-1.79608-8.39518-3.5798-12.63927-5.25256-1.52931-.60275-1.40375-1.34782-.61521-2.40509,1.89986-2.54733,4.51005-3.83944,7.58336-3.32045,2.0506.34627,3.04713-.06324,3.49036-2.04481.10103-.45165.50145-.83638.76408-1.25191Z" fill="#d38b00" stroke-width="0"/></svg>